<svg width="40" height="40" viewBox="0 0 40 40" fill="none" xmlns="http://www.w3.org/2000/svg">
<path d="M28.7167 15.0007C28.075 15.2923 27.3833 15.484 26.6667 15.5757C27.4 15.134 27.9667 14.434 28.2333 13.5923C27.5417 14.009 26.775 14.3007 25.9667 14.4673C25.3083 13.7507 24.3833 13.334 23.3333 13.334C21.375 13.334 19.775 14.934 19.775 16.909C19.775 17.1923 19.8083 17.4673 19.8667 17.7257C16.9 17.5757 14.2583 16.1507 12.5 13.9923C12.1917 14.5173 12.0167 15.134 12.0167 15.784C12.0167 17.0257 12.6417 18.1257 13.6083 18.7507C13.0167 18.7507 12.4667 18.584 11.9833 18.334V18.359C11.9833 20.0923 13.2167 21.5423 14.85 21.8673C14.3256 22.0108 13.7751 22.0308 13.2417 21.9257C13.468 22.6361 13.9113 23.2577 14.5092 23.7031C15.1071 24.1485 15.8295 24.3954 16.575 24.409C15.3114 25.4094 13.745 25.9501 12.1333 25.9423C11.85 25.9423 11.5667 25.9257 11.2833 25.8923C12.8667 26.909 14.75 27.5007 16.7667 27.5007C23.3333 27.5007 26.9417 22.0507 26.9417 17.3257C26.9417 17.1673 26.9417 17.0173 26.9333 16.859C27.6333 16.359 28.2333 15.7257 28.7167 15.0007Z" fill="#F4F4F4"/>
<circle cx="20" cy="20" r="19.5" stroke="white"/>
</svg>
