<svg width="40" height="40" viewBox="0 0 40 40" fill="none" xmlns="http://www.w3.org/2000/svg">
<path d="M20.0017 27.5339C17.9517 27.5339 17.71 27.5231 16.91 27.4881C16.2861 27.4676 15.6704 27.3408 15.0892 27.1131C14.5918 26.9195 14.1401 26.6247 13.7628 26.2472C13.3855 25.8698 13.0909 25.418 12.8975 24.9206C12.6786 24.3373 12.5605 23.721 12.5483 23.0981C12.5017 22.2997 12.5017 22.0381 12.5017 20.0039C12.5017 17.9481 12.5125 17.7081 12.5483 16.9122C12.5608 16.2902 12.6788 15.6747 12.8975 15.0922C13.0906 14.5942 13.3855 14.1419 13.7633 13.7642C14.1411 13.3866 14.5935 13.0919 15.0917 12.8989C15.6739 12.6791 16.2895 12.5607 16.9117 12.5489C17.7075 12.5039 17.9692 12.5039 20.0017 12.5039C22.0683 12.5039 22.3058 12.5147 23.0933 12.5489C23.7167 12.5606 24.335 12.6789 24.9183 12.8989C25.4163 13.0921 25.8686 13.3869 26.2464 13.7645C26.6242 14.1421 26.9191 14.5943 27.1125 15.0922C27.335 15.6839 27.4542 16.3089 27.4633 16.9397C27.51 17.7381 27.51 17.9989 27.51 20.0322C27.51 22.0656 27.4983 22.3322 27.4633 23.1214C27.4509 23.7449 27.3325 24.3617 27.1133 24.9456C26.9195 25.4433 26.6242 25.8954 26.2464 26.273C25.8685 26.6505 25.4162 26.9454 24.9183 27.1389C24.335 27.3572 23.7192 27.4756 23.0967 27.4881C22.3008 27.5339 22.04 27.5339 20.0017 27.5339ZM19.9733 13.8231C17.935 13.8231 17.7233 13.8331 16.9275 13.8689C16.4522 13.8751 15.9815 13.9628 15.5358 14.1281C15.2108 14.2527 14.9154 14.444 14.6688 14.6897C14.4223 14.9354 14.2299 15.2301 14.1042 15.5547C13.9375 16.0047 13.85 16.4806 13.845 16.9606C13.8008 17.7681 13.8008 17.9797 13.8008 20.0039C13.8008 22.0039 13.8083 22.2464 13.845 23.0489C13.8525 23.5239 13.94 23.9947 14.1042 24.4406C14.3592 25.0964 14.8792 25.6147 15.5367 25.8664C15.9818 26.0327 16.4524 26.1204 16.9275 26.1256C17.7342 26.1722 17.9467 26.1722 19.9733 26.1722C22.0175 26.1722 22.2292 26.1622 23.0183 26.1256C23.4937 26.1198 23.9645 26.0321 24.41 25.8664C24.7333 25.7409 25.027 25.5494 25.2723 25.3042C25.5176 25.059 25.7093 24.7655 25.835 24.4422C26.0017 23.9922 26.0892 23.5156 26.0942 23.0356H26.1033C26.1392 22.2389 26.1392 22.0264 26.1392 19.9906C26.1392 17.9547 26.13 17.7406 26.0942 16.9447C26.0866 16.4701 25.999 16.0002 25.835 15.5547C25.7095 15.231 25.5181 14.937 25.2727 14.6914C25.0274 14.4457 24.7336 14.2539 24.41 14.1281C23.9646 13.962 23.4937 13.8743 23.0183 13.8689C22.2125 13.8231 22.0017 13.8231 19.9733 13.8231ZM20.0017 23.8531C19.2396 23.8536 18.4946 23.6281 17.8607 23.2051C17.2269 22.7821 16.7327 22.1806 16.4407 21.4768C16.1487 20.7729 16.072 19.9983 16.2203 19.2508C16.3686 18.5034 16.7353 17.8167 17.2739 17.2776C17.8125 16.7386 18.4988 16.3713 19.2461 16.2224C19.9935 16.0734 20.7682 16.1495 21.4723 16.4408C22.1764 16.7322 22.7783 17.2259 23.2018 17.8594C23.6253 18.4929 23.8515 19.2377 23.8517 19.9997C23.8503 21.0207 23.4444 21.9996 22.7228 22.7218C22.0011 23.4441 21.0226 23.8509 20.0017 23.8531ZM20.0017 17.4981C19.5072 17.4981 19.0239 17.6447 18.6127 17.9194C18.2016 18.1941 17.8812 18.5845 17.692 19.0414C17.5027 19.4982 17.4532 20.0008 17.5497 20.4858C17.6462 20.9708 17.8843 21.4162 18.2339 21.7658C18.5835 22.1155 19.029 22.3536 19.5139 22.45C19.9989 22.5465 20.5016 22.497 20.9584 22.3078C21.4152 22.1186 21.8056 21.7981 22.0803 21.387C22.355 20.9759 22.5017 20.4925 22.5017 19.9981C22.5001 19.3355 22.2362 18.7005 21.7677 18.232C21.2992 17.7635 20.6642 17.4996 20.0017 17.4981ZM24.0017 16.9039C23.8837 16.9035 23.767 16.8798 23.6581 16.8342C23.5493 16.7887 23.4505 16.7222 23.3674 16.6384C23.1996 16.4693 23.1058 16.2405 23.1067 16.0022C23.1075 15.764 23.203 15.5358 23.3721 15.368C23.5412 15.2002 23.7701 15.1064 24.0083 15.1072C24.2466 15.1081 24.4747 15.2036 24.6426 15.3727C24.8104 15.5418 24.9042 15.7707 24.9033 16.0089C24.9024 16.2472 24.807 16.4753 24.6379 16.6431C24.4688 16.811 24.2399 16.9048 24.0017 16.9039Z" fill="#F4F4F4"/>
<circle cx="20" cy="20" r="19.5" stroke="white"/>
</svg>
