<svg width="40" height="40" viewBox="0 0 40 40" fill="none" xmlns="http://www.w3.org/2000/svg">
<path d="M12.5533 16.2577C13.2467 14.8771 14.3103 13.7164 15.6254 12.9056C16.9404 12.0947 18.4551 11.6655 20 11.666C22.2458 11.666 24.1325 12.491 25.575 13.8369L23.1858 16.2269C22.3217 15.401 21.2233 14.9802 20 14.9802C17.8292 14.9802 15.9917 16.4469 15.3375 18.416C15.1708 18.916 15.0758 19.4494 15.0758 19.9994C15.0758 20.5494 15.1708 21.0827 15.3375 21.5827C15.9925 23.5527 17.8292 25.0185 20 25.0185C21.1208 25.0185 22.075 24.7227 22.8217 24.2227C23.2545 23.9377 23.6251 23.5679 23.911 23.1356C24.1969 22.7033 24.3922 22.2176 24.485 21.7077H20V18.4844H27.8483C27.9467 19.0294 28 19.5977 28 20.1885C28 22.7269 27.0917 24.8635 25.515 26.3135C24.1367 27.5869 22.25 28.3327 20 28.3327C18.9055 28.3331 17.8217 28.1179 16.8105 27.6992C15.7992 27.2806 14.8804 26.6668 14.1065 25.8929C13.3326 25.119 12.7187 24.2001 12.3001 23.1889C11.8815 22.1777 11.6662 21.0938 11.6667 19.9994C11.6667 18.6544 11.9883 17.3827 12.5533 16.2577Z" fill="#F4F4F4"/>
<circle cx="20" cy="20" r="19.5" stroke="white"/>
</svg>
