<svg width="64" height="64" viewBox="0 0 64 64" fill="none" xmlns="http://www.w3.org/2000/svg">
<path d="M56 26.666C56 45.3327 32 61.3327 32 61.3327C32 61.3327 8 45.3327 8 26.666C8 20.3008 10.5286 14.1963 15.0294 9.69545C19.5303 5.19458 25.6348 2.66602 32 2.66602C38.3652 2.66602 44.4697 5.19458 48.9706 9.69545C53.4714 14.1963 56 20.3008 56 26.666Z" stroke="white" stroke-width="2" stroke-linecap="round" stroke-linejoin="round"/>
<path d="M32 34.666C36.4183 34.666 40 31.0843 40 26.666C40 22.2477 36.4183 18.666 32 18.666C27.5817 18.666 24 22.2477 24 26.666C24 31.0843 27.5817 34.666 32 34.666Z" stroke="white" stroke-width="2" stroke-linecap="round" stroke-linejoin="round"/>
</svg>
