<svg width="64" height="64" viewBox="0 0 64 64" fill="none" xmlns="http://www.w3.org/2000/svg">
<path d="M40.1335 13.3327C42.7381 13.8409 45.1319 15.1147 47.0083 16.9912C48.8848 18.8677 50.1586 21.2614 50.6668 23.866M40.1335 2.66602C45.5449 3.26718 50.5911 5.69048 54.4435 9.53804C58.2959 13.3856 60.7255 18.4287 61.3335 23.8394M58.6668 45.1194V53.1194C58.6698 53.862 58.5177 54.5971 58.2202 55.2776C57.9227 55.9581 57.4863 56.5689 56.939 57.071C56.3918 57.5731 55.7457 57.9553 55.0422 58.1932C54.3386 58.4312 53.5931 58.5195 52.8535 58.4527C44.6477 57.5611 36.7655 54.7571 29.8401 50.266C23.397 46.1718 17.9344 40.7091 13.8401 34.266C9.33342 27.3092 6.5288 19.3887 5.65348 11.146C5.58684 10.4086 5.67448 9.66538 5.91081 8.96368C6.14715 8.26199 6.527 7.61719 7.02619 7.07034C7.52538 6.52349 8.13296 6.08657 8.81026 5.78741C9.48755 5.48824 10.2197 5.33338 10.9601 5.33268H18.9601C20.2543 5.31995 21.5089 5.77823 22.4902 6.6221C23.4714 7.46598 24.1124 8.63787 24.2935 9.91935C24.6311 12.4795 25.2573 14.9933 26.1602 17.4127C26.5189 18.3671 26.5966 19.4045 26.3839 20.4017C26.1712 21.3989 25.6771 22.3143 24.9601 23.0394L21.5735 26.426C25.3696 33.1021 30.8974 38.6299 37.5735 42.426L40.9602 39.0394C41.6852 38.3224 42.6006 37.8283 43.5978 37.6156C44.595 37.4029 45.6324 37.4806 46.5868 37.8394C49.0062 38.7422 51.52 39.3684 54.0802 39.706C55.3755 39.8888 56.5586 40.5412 57.4042 41.5393C58.2499 42.5374 58.6993 43.8116 58.6668 45.1194Z" stroke="white" stroke-width="2" stroke-linecap="round" stroke-linejoin="round"/>
</svg>
